#Comment line ignore any data following # character 
#Hierarchical Translation and Rotation (.htr) file 
[Header]	
#Header keywords are followed by a single value 
FileType HTR		#Single word string
DataType HTRS		#Translation followed by rotation and scale data
FileVersion 1		#integer
NumSegments 64		#integer
NumFrames 3		#integer
DataFrameRate 30		#integer, data frame rate in this file
EulerRotationOrder ZYX
CalibrationUnits mm
RotationUnits Degrees
GlobalAxisofGravity Y
BoneLengthAxis Y
ScaleFactor 1.00
[SegmentNames&Hierarchy]
#CHILD	PARENT
Pinger_Root GLOBAL
Pelvis Pinger_Root
L_Hip Pelvis
R_Hip Pelvis
Rear_Leg01 Pelvis
Spine1 Pelvis
L_Leg01 L_Hip
L_Leg02 L_Leg01
L_Leg03 L_Leg02
L_Foot L_Leg03
L_Toe1_01 L_Foot
L_Toe2_01 L_Foot
L_Toe3_01 L_Foot
planeAlignerLeft L_Foot
L_Toe1_02 L_Toe1_01
L_Toe1_03 L_Toe1_02
L_Toe2_02 L_Toe2_01
L_Toe2_03 L_Toe2_02
L_Toe3_02 L_Toe3_01
L_Toe3_03 L_Toe3_02
planeLockWeightLeft planeAlignerLeft
R_Leg01 R_Hip
R_Leg02 R_Leg01
R_Leg03 R_Leg02
R_Foot R_Leg03
planeAlignerRight R_Foot
R_Toe1_01 R_Foot
R_Toe2_01 R_Foot
R_Toe3_01 R_Foot
planeLockWeightRight planeAlignerRight
R_Toe1_02 R_Toe1_01
R_Toe1_03 R_Toe1_02
R_Toe2_02 R_Toe2_01
R_Toe2_03 R_Toe2_02
R_Toe3_02 R_Toe3_01
R_Toe3_03 R_Toe3_02
Rear_Leg02 Rear_Leg01
Rear_Leg03 Rear_Leg02
Rear_Leg04 Rear_Leg03
Rear_Foot Rear_Leg04
planeAlignerCenter Rear_Foot
Rear_Toe1_01 Rear_Foot
Rear_Toe2_01 Rear_Foot
Rear_Toe3_01 Rear_Foot
planeLockWeightCenter planeAlignerCenter
Rear_Toe1_02 Rear_Toe1_01
Rear_Toe1_03 Rear_Toe1_02
Rear_Toe2_02 Rear_Toe2_01
Rear_Toe2_03 Rear_Toe2_02
Rear_Toe3_02 Rear_Toe3_01
Rear_Toe3_03 Rear_Toe3_02
Back_Bone Spine1
Head Spine1
Motor_Bone Back_Bone
Ping_Mechanism Back_Bone
BN_LookIK Head
bottomMouth Head
L_Mouth01 Head
L_mouthFront Head
mouthGun Head
R_Mouth01 Head
R_mouthFront Head
TopMouth Head
weapon_bone Head
[BasePosition]
#SegmentName Tx, Ty, Tz, Rx, Ry, Rz, BoneLength
Pinger_Root 0.000000 0.000000 0.000000 -90.000000 0.000000 0.000000 10.000000 
Pelvis 0.000000 0.000000 0.000000 0.000000 0.000000 0.000000 10.000000 
L_Hip 0.000000 0.000000 0.000000 0.000000 0.000000 0.000000 10.000000 
R_Hip 0.000000 0.000000 0.000000 0.000000 0.000000 0.000000 10.000000 
Rear_Leg01 0.000000 0.000000 0.000000 0.000000 0.000000 0.000000 10.000000 
Spine1 0.000000 0.000000 0.000000 0.000000 0.000000 0.000000 10.000000 
L_Leg01 0.000000 0.000000 0.000000 0.000000 0.000000 0.000000 10.000000 
L_Leg02 0.000000 0.000000 0.000000 0.000000 0.000000 0.000000 10.000000 
L_Leg03 0.000000 0.000000 0.000000 0.000000 0.000000 0.000000 10.000000 
L_Foot 0.000000 0.000000 0.000000 0.000000 0.000000 0.000000 10.000000 
L_Toe1_01 0.000000 0.000000 0.000000 0.000000 0.000000 0.000000 10.000000 
L_Toe2_01 0.000000 0.000000 0.000000 0.000000 0.000000 0.000000 10.000000 
L_Toe3_01 0.000000 0.000000 0.000000 0.000000 0.000000 0.000000 10.000000 
planeAlignerLeft 0.000000 0.000000 0.000000 0.000000 0.000000 0.000000 10.000000 
L_Toe1_02 0.000000 0.000000 0.000000 0.000000 0.000000 0.000000 10.000000 
L_Toe1_03 0.000000 0.000000 0.000000 0.000000 0.000000 0.000000 10.000000 
L_Toe2_02 0.000000 0.000000 0.000000 0.000000 0.000000 0.000000 10.000000 
L_Toe2_03 0.000000 0.000000 0.000000 0.000000 0.000000 0.000000 10.000000 
L_Toe3_02 0.000000 0.000000 0.000000 0.000000 0.000000 0.000000 10.000000 
L_Toe3_03 0.000000 0.000000 0.000000 0.000000 0.000000 0.000000 10.000000 
planeLockWeightLeft 0.000000 0.000000 0.000000 0.000000 0.000000 0.000000 10.000000 
R_Leg01 0.000000 0.000000 0.000000 0.000000 0.000000 0.000000 10.000000 
R_Leg02 0.000000 0.000000 0.000000 0.000000 0.000000 0.000000 10.000000 
R_Leg03 0.000000 0.000000 0.000000 0.000000 0.000000 0.000000 10.000000 
R_Foot 0.000000 0.000000 0.000000 0.000000 0.000000 0.000000 10.000000 
planeAlignerRight 0.000000 0.000000 0.000000 0.000000 0.000000 0.000000 10.000000 
R_Toe1_01 0.000000 0.000000 0.000000 0.000000 0.000000 0.000000 10.000000 
R_Toe2_01 0.000000 0.000000 0.000000 0.000000 0.000000 0.000000 10.000000 
R_Toe3_01 0.000000 0.000000 0.000000 0.000000 0.000000 0.000000 10.000000 
planeLockWeightRight 0.000000 0.000000 0.000000 0.000000 0.000000 0.000000 10.000000 
R_Toe1_02 0.000000 0.000000 0.000000 0.000000 0.000000 0.000000 10.000000 
R_Toe1_03 0.000000 0.000000 0.000000 0.000000 0.000000 0.000000 10.000000 
R_Toe2_02 0.000000 0.000000 0.000000 0.000000 0.000000 0.000000 10.000000 
R_Toe2_03 0.000000 0.000000 0.000000 0.000000 0.000000 0.000000 10.000000 
R_Toe3_02 0.000000 0.000000 0.000000 0.000000 0.000000 0.000000 10.000000 
R_Toe3_03 0.000000 0.000000 0.000000 0.000000 0.000000 0.000000 10.000000 
Rear_Leg02 0.000000 0.000000 0.000000 0.000000 0.000000 0.000000 10.000000 
Rear_Leg03 0.000000 0.000000 0.000000 0.000000 0.000000 0.000000 10.000000 
Rear_Leg04 0.000000 0.000000 0.000000 0.000000 0.000000 0.000000 10.000000 
Rear_Foot 0.000000 0.000000 0.000000 0.000000 0.000000 0.000000 10.000000 
planeAlignerCenter 0.000000 0.000000 0.000000 0.000000 0.000000 0.000000 10.000000 
Rear_Toe1_01 0.000000 0.000000 0.000000 0.000000 0.000000 0.000000 10.000000 
Rear_Toe2_01 0.000000 0.000000 0.000000 0.000000 0.000000 0.000000 10.000000 
Rear_Toe3_01 0.000000 0.000000 0.000000 0.000000 0.000000 0.000000 10.000000 
planeLockWeightCenter 0.000000 0.000000 0.000000 0.000000 0.000000 0.000000 10.000000 
Rear_Toe1_02 0.000000 0.000000 0.000000 0.000000 0.000000 0.000000 10.000000 
Rear_Toe1_03 0.000000 0.000000 0.000000 0.000000 0.000000 0.000000 10.000000 
Rear_Toe2_02 0.000000 0.000000 0.000000 0.000000 0.000000 0.000000 10.000000 
Rear_Toe2_03 0.000000 0.000000 0.000000 0.000000 0.000000 0.000000 10.000000 
Rear_Toe3_02 0.000000 0.000000 0.000000 0.000000 0.000000 0.000000 10.000000 
Rear_Toe3_03 0.000000 0.000000 0.000000 0.000000 0.000000 0.000000 10.000000 
Back_Bone 0.000000 0.000000 0.000000 0.000000 0.000000 0.000000 10.000000 
Head 0.000000 0.000000 0.000000 0.000000 0.000000 0.000000 10.000000 
Motor_Bone 0.000000 0.000000 0.000000 0.000000 0.000000 0.000000 10.000000 
Ping_Mechanism 0.000000 0.000000 0.000000 0.000000 0.000000 0.000000 10.000000 
BN_LookIK 0.000000 0.000000 0.000000 0.000000 0.000000 0.000000 10.000000 
bottomMouth 0.000000 0.000000 0.000000 0.000000 0.000000 0.000000 10.000000 
L_Mouth01 0.000000 0.000000 0.000000 0.000000 0.000000 0.000000 10.000000 
L_mouthFront 0.000000 0.000000 0.000000 0.000000 0.000000 0.000000 10.000000 
mouthGun 0.000000 0.000000 0.000000 0.000000 0.000000 0.000000 10.000000 
R_Mouth01 0.000000 0.000000 0.000000 0.000000 0.000000 0.000000 10.000000 
R_mouthFront 0.000000 0.000000 0.000000 0.000000 0.000000 0.000000 10.000000 
TopMouth 0.000000 0.000000 0.000000 0.000000 0.000000 0.000000 10.000000 
weapon_bone 0.000000 0.000000 0.000000 0.000000 0.000000 0.000000 10.000000 
#Beginning of Data. Separated by tabs
#Fr	Tx	Ty	Tz	Rx	Ry	Rz	SF
[Pinger_Root]
264 0.000000 0.000000 0.000000 -0.000075 -0.000000 -0.000020 0.000000
265 0.000000 0.000000 0.000000 -0.000075 -0.000000 -0.000020 0.000000
266 0.000000 0.000000 0.000000 -0.000075 -0.000000 -0.000020 0.000000
[Pelvis]
264 -390.120483 837.701050 4048.222900 -35.194416 -75.874062 22.808224 4152.354492
265 -401.101776 872.861206 3991.063477 -40.573589 -80.716789 27.965096 4105.040527
266 -410.643158 915.378235 3923.900146 -53.782997 -85.007660 41.207481 4050.128174
[L_Hip]
264 5.766392 125.831482 872.656799 171.860687 -52.758255 109.303169 881.701050
265 5.766392 125.831482 872.656799 176.402451 -54.471027 104.522041 881.701050
266 5.766392 125.831482 872.656799 -178.889130 -55.770939 99.713478 881.701050
[R_Hip]
264 5.765438 125.836372 -872.654907 -32.115448 53.158421 41.864288 881.699829
265 5.765438 125.836372 -872.654907 -35.738335 51.267681 37.276058 881.699829
266 5.765438 125.836372 -872.654907 -38.454437 49.565708 33.755428 881.699829
[Rear_Leg01]
264 -192.298416 -925.602966 -0.001907 -170.329651 23.647694 -120.287560 945.367432
265 -192.298416 -925.602966 -0.001907 -174.802155 21.503626 -120.535126 945.367432
266 -192.298416 -925.602966 -0.001907 -178.754822 18.889748 -120.322899 945.367432
[Spine1]
264 290.604584 5.007505 0.000477 11.496326 -19.150692 4.843686 290.647736
265 290.604584 5.007505 0.000477 12.516111 -18.323957 6.725729 290.647736
266 290.604584 5.007505 0.000477 13.425856 -17.560383 8.452642 290.647736
[L_Leg01]
264 761.932007 -0.002384 -0.069261 17.247509 -22.880220 -45.895065 761.932068
265 761.932007 -0.002384 -0.069261 20.198603 -19.412123 -48.248337 761.932068
266 761.932007 -0.002384 -0.069261 22.778381 -16.368607 -49.592247 761.932068
[L_Leg02]
264 1441.140503 -0.000954 -0.000715 2.999677 0.140677 -109.642395 1441.140503
265 1441.140503 -0.000954 -0.000715 4.070013 0.519806 -112.829666 1441.140503
266 1441.140503 -0.000954 -0.000715 5.184693 1.109812 -117.300888 1441.140503
[L_Leg03]
264 1686.963989 -0.000715 -0.000954 -0.060847 0.031345 126.866478 1686.963989
265 1686.963989 -0.000715 -0.000954 -0.076032 0.039588 130.950882 1686.963989
266 1686.963989 -0.000715 -0.000954 -0.091651 0.051438 135.220230 1686.963989
[L_Foot]
264 3041.570068 -30.715107 11.297464 7.295102 13.546072 49.473076 3041.746094
265 3041.570068 -30.715107 11.297464 7.689512 13.493371 49.492306 3041.746094
266 3041.570068 -30.715107 11.297464 8.080478 13.410217 50.132504 3041.746094
[L_Toe1_01]
264 -188.216690 -224.732346 -21.137953 94.536530 -11.874324 -178.539001 293.899567
265 -188.216690 -224.732346 -21.137953 94.536530 -11.874323 -178.539001 293.899567
266 -188.216690 -224.732346 -21.137953 94.536530 -11.874323 -178.539001 293.899567
[L_Toe2_01]
264 200.746536 -219.926590 148.838394 -89.328247 -33.857243 -48.528896 332.896027
265 200.746536 -219.926590 148.838394 -89.328217 -33.857212 -48.528934 332.896027
266 200.746536 -219.926590 148.838394 -89.328217 -33.857212 -48.528934 332.896027
[L_Toe3_01]
264 188.832520 -219.859131 -191.078659 -96.859619 10.610573 -57.318081 347.140900
265 188.832520 -219.859131 -191.078659 -96.920883 10.663536 -57.474812 347.140900
266 188.832520 -219.859131 -191.078659 -96.982323 10.716332 -57.631641 347.140900
[planeAlignerLeft]
264 0.812531 -811.448792 -0.314951 0.000000 -90.000000 -90.001900 811.449280
265 0.812531 -811.448792 -0.314951 0.000000 -90.000000 -90.001900 811.449280
266 0.812531 -811.448792 -0.314951 0.000000 -90.000000 -90.001900 811.449280
[L_Toe1_02]
264 413.761139 0.000477 0.000000 0.001385 -25.855608 0.001385 413.761139
265 413.761139 0.000477 0.000000 0.001385 -25.855608 0.001385 413.761139
266 413.761139 0.000477 0.000000 0.001385 -25.855608 0.001385 413.761139
[L_Toe1_03]
264 464.317322 0.000358 -0.000089 0.004342 58.635971 0.004342 464.317322
265 464.317322 0.000358 -0.000089 0.004342 58.635960 0.004342 464.317322
266 464.317322 0.000358 -0.000089 0.004342 58.635971 0.004342 464.317322
[L_Toe2_02]
264 342.235809 -0.000477 0.000238 0.001191 -70.156685 0.001191 342.235809
265 342.235809 -0.000477 0.000238 0.001191 -70.156403 0.001191 342.235809
266 342.235809 -0.000477 0.000238 0.001191 -70.156403 0.001191 342.235809
[L_Toe2_03]
264 420.210846 -0.000715 0.000000 0.013354 79.916428 0.013354 420.210846
265 420.210846 -0.000715 0.000000 0.013353 79.915703 0.013353 420.210846
266 420.210846 -0.000715 0.000000 0.013353 79.915741 0.013353 420.210846
[L_Toe3_02]
264 329.270111 0.000954 0.000000 0.002343 -83.702095 0.002343 329.270111
265 329.270111 0.000954 0.000000 0.001954 -83.542450 0.001954 329.270111
266 329.270111 0.000954 0.000000 0.001565 -83.382744 0.001565 329.270111
[L_Toe3_03]
264 439.137451 -0.001907 0.000954 179.991577 61.803085 179.998795 439.137451
265 439.137451 -0.001907 0.000954 179.991364 63.069611 179.998566 439.137451
266 439.137451 -0.001907 0.000954 179.991165 64.111252 179.998352 439.137451
[planeLockWeightLeft]
264 -0.000954 0.000238 -0.000305 -0.011826 -0.004376 0.005620 0.001029
265 -0.000954 0.000238 -0.000305 -0.011826 -0.004376 0.005620 0.001029
266 -0.000954 0.000238 -0.000305 -0.011826 -0.004376 0.005620 0.001029
[R_Leg01]
264 761.455627 -0.001907 -0.000358 89.117714 -14.489946 73.014023 761.455688
265 761.455627 -0.001907 -0.000358 84.620613 -5.313766 82.318161 761.455688
266 761.455627 -0.001907 -0.000358 80.744522 2.816439 89.103279 761.455688
[R_Leg02]
264 1441.140625 0.000000 -0.000238 -0.219743 -0.027487 -115.731331 1441.140625
265 1441.140625 0.000000 -0.000238 -0.119515 0.039361 -100.471497 1441.140625
266 1441.140625 0.000000 -0.000238 -0.073679 0.102679 -86.312569 1441.140625
[R_Leg03]
264 1686.963989 0.000954 0.001431 0.061918 -0.031762 126.972725 1686.963989
265 1686.963989 0.000954 0.001431 0.055722 -0.028715 125.258743 1686.963989
266 1686.963989 0.000954 0.001431 0.047272 -0.021148 122.681877 1686.963989
[R_Foot]
264 3041.560059 -30.531288 -11.204481 1.533909 -35.516022 41.071892 3041.734131
265 3041.560059 -30.531288 -11.204481 1.194139 -39.080524 35.252430 3041.734131
266 3041.560059 -30.531288 -11.204481 1.300297 -42.185600 30.178289 3041.734131
[planeAlignerRight]
264 -0.635147 -812.270569 -0.364304 0.000000 -89.960434 -90.005180 812.270874
265 -0.635147 -812.270569 -0.364304 0.000000 -89.960434 -90.005180 812.270874
266 -0.635147 -812.270569 -0.364304 0.000000 -89.960434 -90.005180 812.270874
[R_Toe1_01]
264 -188.383347 -224.864899 21.052242 64.195244 17.038050 -168.755630 294.101532
265 -188.383347 -224.864899 21.052242 62.364559 19.940554 -168.037155 294.101532
266 -188.383347 -224.864899 21.052242 60.741585 22.538843 -167.505539 294.101532
[R_Toe2_01]
264 200.637817 -220.002121 -148.787384 -68.315208 38.254955 -39.162281 332.857574
265 200.637817 -220.002121 -148.787384 -64.564804 38.780735 -36.190292 332.857574
266 200.637817 -220.002121 -148.787384 -61.191639 39.184849 -33.544144 332.857574
[R_Toe3_01]
264 188.606735 -220.092957 191.126343 -59.836857 3.990721 -73.574844 347.192566
265 188.606735 -220.092957 191.126343 -57.867352 6.102383 -73.294029 347.192566
266 188.606735 -220.092957 191.126343 -56.242935 8.059671 -73.303696 347.192566
[planeLockWeightRight]
264 -0.000477 0.000000 0.000000 -0.011823 -0.004379 -0.000027 0.000477
265 -0.000477 0.000000 0.000000 -0.011823 -0.004379 -0.000027 0.000477
266 -0.000477 0.000000 0.000000 -0.011823 -0.004379 -0.000027 0.000477
[R_Toe1_02]
264 413.762085 0.000477 -0.000119 0.001386 -25.657669 0.001386 413.762085
265 413.762085 0.000477 -0.000119 0.001385 -25.827696 0.001385 413.762085
266 413.762085 0.000477 -0.000119 0.001384 -25.997675 0.001384 413.762085
[R_Toe1_03]
264 464.317810 0.000000 0.001088 0.004696 61.019203 0.004696 464.317810
265 464.317810 0.000000 0.001088 0.004152 57.126400 0.004152 464.317810
266 464.317810 0.000000 0.001088 0.003722 53.238079 0.003722 464.317810
[R_Toe2_02]
264 342.234741 -0.000954 0.000238 0.001227 -56.129013 0.001227 342.234741
265 342.234741 -0.000954 0.000238 0.001229 -55.478088 0.001229 342.234741
266 342.234741 -0.000954 0.000238 0.001231 -54.827118 0.001231 342.234741
[R_Toe2_03]
264 420.210846 0.000715 -0.000268 -0.003747 55.050560 -0.000081 420.210846
265 420.210846 0.000715 -0.000268 -0.003703 54.091480 -0.000027 420.210846
266 420.210846 0.000715 -0.000268 -0.003660 53.132458 0.000025 420.210846
[R_Toe3_02]
264 329.270355 -0.000477 -0.000954 -0.002362 -69.204956 -0.002362 329.270355
265 329.270355 -0.000477 -0.000954 -0.002368 -67.578224 -0.002368 329.270355
266 329.270355 -0.000477 -0.000954 -0.002370 -67.231903 -0.002370 329.270355
[R_Toe3_03]
264 439.137939 0.000238 0.001431 0.007478 71.942184 0.007478 439.137939
265 439.137939 0.000238 0.001431 0.006405 68.884781 0.006405 439.137939
266 439.137939 0.000238 0.001431 0.006210 68.212349 0.006210 439.137939
[Rear_Leg02]
264 1162.777710 -0.029802 0.005960 -2.052277 5.164593 -83.329254 1162.777710
265 1162.777710 -0.029802 0.005960 -3.253103 7.362824 -87.878815 1162.777710
266 1162.777710 -0.029802 0.005960 -4.516279 9.240884 -92.246193 1162.777710
[Rear_Leg03]
264 607.192505 -0.013351 -0.073195 0.010489 -0.005113 68.330627 607.192505
265 607.192505 -0.013351 -0.073195 0.010455 -0.005182 69.079475 607.192505
266 607.192505 -0.013351 -0.073195 0.010421 -0.005250 69.828293 607.192505
[Rear_Leg04]
264 995.874512 -0.020504 -0.011921 -0.040092 -0.019017 66.608459 995.874573
265 995.874512 -0.020504 -0.011921 -0.040370 -0.018430 68.284660 995.874573
266 995.874512 -0.020504 -0.011921 -0.040631 -0.017836 69.960884 995.874573
[Rear_Foot]
264 3096.176270 -0.067472 -0.041425 28.616539 79.470940 -150.560669 3096.176270
265 3096.176270 -0.067472 -0.041425 34.623051 77.308655 -143.398361 3096.176270
266 3096.176270 -0.067472 -0.041425 38.827145 75.489098 -137.889343 3096.176270
[planeAlignerCenter]
264 0.350077 0.966311 -838.790894 0.000009 0.000003 -179.999985 838.791565
265 0.350077 0.966311 -838.790894 0.000009 0.000003 -179.999985 838.791565
266 0.350077 0.966311 -838.790894 0.000009 0.000003 -179.999985 838.791565
[Rear_Toe1_01]
264 0.653352 83.966492 -371.173737 0.356742 37.241943 90.449005 380.553192
265 0.653352 83.966492 -371.173737 1.257237 35.898888 92.057510 380.553192
266 0.653352 83.966492 -371.173737 3.333573 34.300423 95.827026 380.553192
[Rear_Toe2_01]
264 178.200760 -294.826019 -362.060547 -5.500414 37.375122 -63.781784 499.765686
265 178.200760 -294.826019 -362.060547 -5.945179 35.826939 -64.612961 499.765686
266 178.200760 -294.826019 -362.060547 -6.829582 33.589851 -66.809784 499.765686
[Rear_Toe3_01]
264 -153.359680 -308.780914 -362.060852 2.565506 36.832352 -113.466660 499.952881
265 -153.359680 -308.780914 -362.060852 2.380056 35.676136 -114.460434 499.952881
266 -153.359680 -308.780914 -362.060852 2.126981 34.279732 -116.393227 499.952881
[planeLockWeightCenter]
264 -0.000062 0.000238 0.000000 -0.011814 -0.004373 -0.000015 0.000246
265 -0.000062 0.000238 0.000000 -0.011814 -0.004373 -0.000015 0.000246
266 -0.000062 0.000238 0.000000 -0.011814 -0.004373 -0.000015 0.000246
[Rear_Toe1_02]
264 379.707825 0.194073 0.000477 -0.003122 -32.977470 -0.001029 379.707855
265 379.707825 0.194073 0.000477 -0.002883 -32.867645 -0.001838 379.707855
266 379.707825 0.194073 0.000477 -0.002646 -32.757805 -0.002646 379.707855
[Rear_Toe1_03]
264 500.129700 0.165701 0.000119 -0.029171 87.869530 -0.032668 500.129761
265 500.129700 0.165701 0.000119 -0.078769 89.181473 -0.082266 500.129761
266 500.129700 0.165701 0.000119 0.000000 89.825287 -0.003495 500.129761
[Rear_Toe2_02]
264 340.494507 0.000238 -0.000954 0.001174 -85.640366 0.001174 340.494507
265 340.494507 0.000238 -0.000954 0.001174 -86.832687 0.001174 340.494507
266 340.494507 0.000238 -0.000954 0.000000 -88.698547 0.000000 340.494507
[Rear_Toe2_03]
264 433.103577 0.000000 0.000238 179.987091 79.567947 179.987091 433.103546
265 433.103577 0.000000 0.000238 -179.993423 76.317596 -179.996948 433.103546
266 433.103577 0.000000 0.000238 -179.994797 70.706352 -179.998337 433.103546
[Rear_Toe3_02]
264 340.494141 -0.000358 -0.000477 0.001175 -84.599602 0.001175 340.494171
265 340.494141 -0.000358 -0.000477 0.001176 -83.435143 0.001176 340.494171
266 340.494141 -0.000358 -0.000477 0.001179 -78.896599 0.001179 340.494171
[Rear_Toe3_03]
264 433.103577 0.001431 -0.000238 -179.993347 82.147324 -179.989853 433.103546
265 433.103577 0.001431 -0.000238 -179.988663 84.971992 -179.985138 433.103546
266 433.103577 0.001431 -0.000238 -0.015918 85.350380 -0.012419 433.103546
[Back_Bone]
264 1312.175781 -701.934692 0.000954 -8.483662 -0.001562 -85.607567 1488.125488
265 1312.175781 -701.934692 0.000954 -10.474775 0.001273 -85.605110 1488.125488
266 1312.175781 -701.934692 0.000954 -11.877900 0.002513 -85.603699 1488.125488
[Head]
264 1406.159424 809.709290 0.001431 2.999617 13.662424 8.355642 1622.625488
265 1406.159424 809.709290 0.001431 2.583914 14.997663 9.817654 1622.625488
266 1406.159424 809.709290 0.001431 2.149293 16.102472 11.418489 1622.625488
[Motor_Bone]
264 1158.364380 -417.834747 0.000477 -0.000105 0.000046 -105.985291 1231.419434
265 1158.364380 -417.834747 0.000477 -0.000105 0.000046 -105.985291 1231.419434
266 1158.364380 -417.834747 0.000477 -0.000105 0.000046 -105.985291 1231.419434
[Ping_Mechanism]
264 1290.470459 -97.813141 66.486160 0.000103 -0.000053 82.120995 1295.878784
265 1283.675903 -99.280128 42.584026 0.000103 -0.000053 82.120995 1288.213379
266 1277.968262 -99.016151 20.223974 0.000103 -0.000053 82.120995 1281.957886
[BN_LookIK]
264 193.241119 1380.371704 -0.002861 0.000000 89.965736 -31.038179 1393.832153
265 193.241119 1380.371704 -0.002861 0.000000 89.965736 -31.038179 1393.832153
266 193.241119 1380.371704 -0.002861 0.000000 89.965736 -31.038179 1393.832153
[bottomMouth]
264 -435.092926 615.759399 -0.000954 -0.000022 0.000016 73.527184 753.966492
265 -435.092926 615.759399 -0.000954 -0.000022 0.000016 73.527184 753.966492
266 -435.092926 615.759399 -0.000954 -0.000022 0.000016 73.527184 753.966492
[L_Mouth01]
264 554.440979 7.658243 838.222046 150.204178 23.759130 109.605339 1005.027161
265 554.440979 7.658243 838.222046 150.204178 23.759130 109.605339 1005.027161
266 554.440979 7.658243 838.222046 150.204178 23.759130 109.605339 1005.027161
[L_mouthFront]
264 551.629089 934.514771 339.150421 0.000081 2.804060 79.119301 1136.941284
265 551.629089 934.514771 339.150421 0.000081 2.804060 79.119301 1136.941284
266 551.629089 934.514771 339.150421 0.000081 2.804060 79.119301 1136.941284
[mouthGun]
264 55.332661 1627.420898 0.000000 0.000023 0.000009 -11.038128 1628.361328
265 55.332661 1627.420898 0.000000 0.000023 0.000009 -11.038128 1628.361328
266 55.332661 1627.420898 0.000000 0.000023 0.000009 -11.038128 1628.361328
[R_Mouth01]
264 554.442383 7.659197 -838.223938 29.795891 -23.759109 109.605331 1005.029541
265 554.442383 7.659197 -838.223938 29.795891 -23.759109 109.605331 1005.029541
266 554.442383 7.659197 -838.223938 29.795891 -23.759109 109.605331 1005.029541
[R_mouthFront]
264 551.629089 934.514282 -339.151367 0.000029 -2.803930 79.119133 1136.941162
265 551.629089 934.514282 -339.151367 0.000029 -2.803930 79.119133 1136.941162
266 551.629089 934.514282 -339.151367 0.000029 -2.803930 79.119133 1136.941162
[TopMouth]
264 461.269867 -56.106091 -0.008583 -0.000059 -0.000268 92.025169 464.669525
265 461.269867 -56.106091 -0.008583 -0.000059 -0.000268 92.025169 464.669525
266 461.269867 -56.106091 -0.008583 -0.000059 -0.000268 92.025169 464.669525
[weapon_bone]
264 -987.239868 1448.372803 0.001431 0.000000 89.965736 -31.038221 1752.833740
265 -987.239868 1448.372803 0.001431 0.000000 89.965736 -31.038221 1752.833740
266 -987.239868 1448.372803 0.001431 0.000000 89.965736 -31.038221 1752.833740
